<svg width="315" height="80" viewBox="0 0 315 80" fill="none" xmlns="http://www.w3.org/2000/svg">
<rect width="315" height="80" fill="white"/>
<line y1="79.5" x2="315" y2="79.5" stroke="#E0E0E0"/>
<path d="M287.323 34.9796L294.784 27.5386C294.931 27.3668 295.008 27.146 294.999 26.9201C294.991 26.6942 294.897 26.4799 294.736 26.32C294.576 26.1602 294.361 26.0665 294.135 26.0578C293.908 26.0491 293.687 26.1259 293.515 26.273L286.054 33.714L278.593 26.264C278.423 26.095 278.193 26 277.954 26C277.714 26 277.484 26.095 277.315 26.264C277.145 26.433 277.05 26.6622 277.05 26.9013C277.05 27.1403 277.145 27.3695 277.315 27.5386L284.785 34.9796L277.315 42.4206C277.22 42.5011 277.144 42.6001 277.09 42.7115C277.036 42.8229 277.005 42.9441 277.001 43.0678C276.996 43.1914 277.017 43.3147 277.062 43.4298C277.107 43.545 277.176 43.6496 277.264 43.7371C277.351 43.8246 277.456 43.893 277.572 43.9382C277.687 43.9833 277.811 44.0041 277.935 43.9993C278.059 43.9946 278.18 43.9643 278.292 43.9104C278.404 43.8565 278.503 43.7802 278.584 43.6863L286.054 36.2452L293.515 43.6863C293.687 43.8333 293.908 43.9101 294.135 43.9014C294.361 43.8927 294.576 43.799 294.736 43.6392C294.897 43.4793 294.991 43.265 294.999 43.0391C295.008 42.8132 294.931 42.5924 294.784 42.4206L287.323 34.9796Z" fill="#005596"/>
<path d="M30.1524 39.6563C26.5857 38.0547 24.1647 35.2082 23.4586 32.1729C23.1056 30.4594 23.7324 29.3334 24.1359 28.7039C24.5826 28.0255 25.123 27.9836 25.123 27.9836C25.123 27.9836 24.5682 27.7248 23.826 27.6199C22.8966 27.487 21.6788 27.5849 20.9079 28.7249C20.3386 30.0258 20.0072 31.4595 20 32.9632C20.0146 35.8517 21.1384 39.1947 24.5682 41.8454C25.5193 42.5308 26.5857 43.0763 27.7386 43.447C27.8971 43.4957 28.0628 43.538 28.2141 43.5799C28.7185 43.7128 29.2157 43.8107 29.6913 43.8876C29.7273 43.8876 29.7633 43.8948 29.7993 43.9019C29.9434 43.9161 30.0875 43.9298 30.2316 43.944C30.455 43.9648 30.6712 43.9861 30.8873 43.9927C30.9954 43.9927 31.1035 43.9998 31.2115 43.9998H31.3269C31.5286 43.9998 31.7376 43.9927 31.9465 43.9856H31.9539C32.1628 43.9714 32.3718 43.9506 32.5807 43.9297C32.6022 43.9297 32.6241 43.9226 32.6528 43.9226C32.8257 43.9018 32.9914 43.8739 33.1643 43.8456C33.2652 43.8314 33.3661 43.8106 33.4598 43.7969C33.4812 43.7898 33.4958 43.7898 33.5174 43.7827C35.4124 43.405 36.9832 42.5727 38.1937 41.7125C38.8998 41.181 39.5339 40.5795 40.0887 39.9081C37.3074 41.202 33.6111 41.209 30.1525 39.6563" fill="#14549C"/>
<path d="M24.078 26.8506C26.0235 24.4587 29.0137 22.8921 32.4003 22.8921C34.9005 22.8921 37.199 23.7383 39.0148 25.1371C36.9973 23.3047 34.2809 22.1787 31.2906 22.1787C27.3421 22.1787 23.8691 24.144 21.8516 27.1304C22.4208 26.8786 23.2422 26.7107 24.078 26.8506" fill="#14549C"/>
<path d="M30.7143 38.8381C32.1193 39.6144 33.6685 40.048 35.2033 40.1879C35.8445 40.0341 36.4642 39.8102 37.0046 39.5095C39.1806 38.1946 45.5934 29.5572 45.5934 29.5572C45.5934 29.5572 42.0988 28.8578 40.5857 29.9349C39.0653 31.012 37.9269 32.7185 36.248 34.5649C34.5692 36.4042 33.827 37.5652 32.3427 37.9289C31.2403 38.2017 30.1955 38.1527 29.2588 37.9497C29.7055 38.2505 30.1883 38.5442 30.7143 38.8379" fill="#14549C"/>
<path d="M41.0825 39.2231C42.4299 38.2719 45.5643 34.1245 45.5643 34.1245C45.5643 34.1245 43.1577 32.9006 40.9744 34.1245C38.784 35.3554 38.8489 35.6702 36.68 37.4047C34.5112 39.1391 32.89 39.335 31.6939 39.2441C31.6219 39.2441 31.5642 39.2298 31.4922 39.2232C34.6193 40.636 38.6976 40.8668 41.0826 39.2232" fill="#EE2121"/>
<path d="M45.5568 22.1788C45.5568 22.1788 42.1126 21.2627 39.3529 23.5776C37.3715 25.2422 33.0914 36.4114 29.7337 37.0478C29.078 37.1667 28.5521 37.1807 28.127 37.1318C28.1343 37.1389 28.1416 37.146 28.1484 37.146C28.7104 37.1947 29.3661 37.181 30.1227 37.0341C33.4876 36.4047 37.9333 26.0957 39.9868 24.5081C42.0476 22.9345 44.5118 23.3331 44.5118 23.3331L42.4367 26.893L45.5568 22.1788Z" fill="#14549C"/>
<path d="M53.8867 23.9341L50.6875 28.8298H57.0787L55.2773 42.3349H61.5748L63.3762 28.8298H68.5569L69.1765 23.9341H53.8867Z" fill="#14549C"/>
<path d="M201.014 23.8296L200.395 28.7253H205.964L204.149 42.3144H210.439L212.255 28.7253H216.801L220 23.8296H201.014Z" fill="#14549C"/>
<path d="M181.178 28.662L181.798 23.8433H166.284L163.863 42.2651H179.369L179.982 37.4393H170.802L171.134 35.1384L180.284 35.1033L180.839 30.935L171.681 30.97L172.013 28.662L181.178 28.662Z" fill="#14549C"/>
<path d="M103.395 23.9131H94.1863C93.5595 23.9131 92.9326 24.3048 92.7453 24.8223L86.1523 42.335H92.5796L93.6604 39.2017L99.7994 39.1317L100.138 42.3349H106.572L104.569 24.8083C104.526 24.2768 104.043 23.9131 103.395 23.9131V23.9131ZM95.4689 34.5298L97.4288 29.4522H98.6897L99.2734 34.5298H95.4689Z" fill="#14549C"/>
<path d="M119.643 32.2568L116.941 23.9131H110.608L108.187 42.3349H114.52L115.558 34.5298L118.332 42.3349H125.011L127.439 23.9131H120.753L119.643 32.2568Z" fill="#14549C"/>
<path d="M181.43 42.2651H187.756L188.7 35.1384L195.206 35.1033L195.732 30.935L189.248 30.97L189.579 28.662H196.194L199.357 23.8433H183.851L181.43 42.2651Z" fill="#14549C"/>
<path d="M86.4703 24.9692C85.8867 24.3118 84.9644 23.9341 83.9412 23.9341L71.2886 23.9199L69.5737 39.2435L69.127 42.3348H75.4749L76.0657 37.9636H77.3771L78.6525 42.3348H84.5609L83.2135 37.8097C84.705 37.4041 85.9155 36.2081 86.1101 34.8094L87.09 27.0881C87.1981 26.2908 86.9819 25.5425 86.4703 24.969L86.4703 24.9692ZM77.161 29.7038L77.2906 28.7946H80.6123L80.0503 32.6133C80.0142 32.8721 79.7621 33.0819 79.4883 33.0819H76.6854L77.161 29.7038Z" fill="#14549C"/>
<path d="M140.899 23.9131H134.054C132.721 23.9131 131.381 24.4096 130.379 25.2769C129.5 26.0392 128.945 27.0184 128.816 28.0535C128.816 28.0535 128.65 29.2704 128.506 30.4454C128.297 32.0609 128.78 33.0471 130.394 33.6765C133.593 34.9214 137.671 36.3552 137.671 36.3552C137.65 36.544 137.635 36.6629 137.635 36.6909L137.577 37.0686L133.982 37.0614L134.083 35.9075H127.764L127.468 38.1735C127.209 40.4674 129.082 42.3348 131.647 42.3348H138.5C139.818 42.3348 141.151 41.8383 142.153 40.964C143.039 40.1947 143.58 39.1596 143.702 38.1735C143.702 38.1735 144.005 35.8655 144.055 35.4598C144.242 33.9911 143.76 33.1449 141.994 32.5084C140.229 31.865 134.89 29.9137 134.89 29.9137C134.955 29.4941 134.991 29.2073 134.998 29.1514L135.041 28.7527L135.445 28.7598C135.445 28.7598 137.967 28.774 138.305 28.774H138.709L138.529 29.942H144.819L145.143 27.3962C145.46 24.8225 143.054 23.9133 140.899 23.9133" fill="#14549C"/>
<path d="M157.673 23.9131L156.564 32.2568L153.926 23.9131H147.593L145.172 42.3419H151.505L152.543 34.5298L155.252 42.3419H161.939L164.36 23.9131H157.673Z" fill="#14549C"/>
<path d="M55.5244 49.6798C55.5084 50.1278 55.4924 50.5638 55.4764 50.9878C55.4604 51.4038 55.4364 51.8118 55.4044 52.2118C55.3724 52.6038 55.3244 52.9878 55.2604 53.3638C55.1964 53.7398 55.1084 54.1078 54.9964 54.4678C54.8844 54.8278 54.7444 55.1678 54.5764 55.4878C54.4164 55.7998 54.2124 56.0758 53.9644 56.3158C53.7244 56.5478 53.4364 56.7358 53.1004 56.8798C52.7724 57.0238 52.3844 57.1038 51.9364 57.1198L51.8044 56.1118C52.3644 56.0478 52.7964 55.8718 53.1004 55.5838C53.4124 55.2958 53.6684 54.8558 53.8684 54.2638C54.0924 53.5918 54.2324 52.7838 54.2884 51.8398C54.3524 50.8878 54.3844 49.8358 54.3844 48.6838H59.1004V56.9998H57.9364V49.6798H55.5244ZM66.3368 50.7598V56.9998H65.2568V52.2478C65.0168 52.5518 64.7528 52.9078 64.4648 53.3158C64.1768 53.7238 63.8888 54.1478 63.6008 54.5878C63.3128 55.0198 63.0368 55.4478 62.7728 55.8718C62.5088 56.2958 62.2808 56.6718 62.0888 56.9998H61.0928V50.7598H62.1728V55.2478C62.3808 54.9038 62.6168 54.5278 62.8808 54.1198C63.1448 53.7038 63.4168 53.2958 63.6968 52.8958C63.9848 52.4878 64.2688 52.0998 64.5488 51.7318C64.8368 51.3558 65.1048 51.0318 65.3528 50.7598H66.3368ZM68.961 50.7598V52.5958C68.961 53.0678 69.081 53.3998 69.321 53.5918C69.561 53.7758 69.889 53.8678 70.305 53.8678C70.609 53.8678 70.861 53.8518 71.061 53.8198C71.269 53.7878 71.453 53.7518 71.613 53.7118V50.7598H72.729V56.9998H71.613V54.5758C71.549 54.5918 71.465 54.6118 71.361 54.6358C71.257 54.6598 71.137 54.6838 71.001 54.7078C70.873 54.7238 70.737 54.7398 70.593 54.7558C70.449 54.7718 70.309 54.7798 70.173 54.7798C69.829 54.7798 69.513 54.7438 69.225 54.6718C68.945 54.5998 68.701 54.4798 68.493 54.3118C68.293 54.1438 68.133 53.9238 68.013 53.6518C67.901 53.3718 67.845 53.0238 67.845 52.6078V50.7598H68.961ZM79.7634 56.9998H78.6474V54.2398H75.7674V56.9998H74.6514V50.7598H75.7674V53.3038H78.6474V50.7598H79.7634V56.9998ZM83.9747 53.9158C83.7587 53.9158 83.5467 53.9238 83.3387 53.9398C83.1387 53.9478 82.9587 53.9718 82.7987 54.0118V56.1598C82.8467 56.1678 82.9147 56.1758 83.0027 56.1838C83.0987 56.1918 83.1987 56.1998 83.3027 56.2078C83.4147 56.2078 83.5267 56.2118 83.6387 56.2198C83.7507 56.2198 83.8507 56.2198 83.9387 56.2198C84.4267 56.2198 84.8027 56.1278 85.0667 55.9438C85.3307 55.7598 85.4627 55.4638 85.4627 55.0558C85.4627 54.8558 85.4187 54.6838 85.3307 54.5398C85.2507 54.3958 85.1387 54.2798 84.9947 54.1918C84.8587 54.0958 84.7027 54.0278 84.5267 53.9878C84.3507 53.9398 84.1667 53.9158 83.9747 53.9158ZM81.6827 50.7598H82.7987V53.1478C82.9347 53.1158 83.1307 53.0838 83.3867 53.0518C83.6507 53.0198 83.9027 53.0038 84.1427 53.0038C84.4707 53.0038 84.7827 53.0438 85.0787 53.1238C85.3747 53.1958 85.6347 53.3158 85.8587 53.4838C86.0827 53.6438 86.2587 53.8558 86.3867 54.1198C86.5227 54.3758 86.5907 54.6838 86.5907 55.0438C86.5907 55.4198 86.5267 55.7398 86.3987 56.0038C86.2707 56.2678 86.0907 56.4838 85.8587 56.6518C85.6267 56.8198 85.3467 56.9398 85.0187 57.0118C84.6907 57.0918 84.3307 57.1318 83.9387 57.1318C83.5627 57.1318 83.1827 57.1078 82.7987 57.0598C82.4147 57.0198 82.0427 56.9558 81.6827 56.8678V50.7598ZM88.8587 56.9998H87.7427V50.7598H88.8587V56.9998ZM96.0204 50.7598V56.9998H94.9404V52.2478C94.7004 52.5518 94.4364 52.9078 94.1484 53.3158C93.8604 53.7238 93.5724 54.1478 93.2844 54.5878C92.9964 55.0198 92.7204 55.4478 92.4564 55.8718C92.1924 56.2958 91.9644 56.6718 91.7724 56.9998H90.7764V50.7598H91.8564V55.2478C92.0644 54.9038 92.3004 54.5278 92.5644 54.1198C92.8284 53.7038 93.1004 53.2958 93.3804 52.8958C93.6684 52.4878 93.9524 52.0998 94.2324 51.7318C94.5204 51.3558 94.7884 51.0318 95.0364 50.7598H96.0204ZM93.4044 49.7518C92.9004 49.7518 92.4884 49.6238 92.1684 49.3678C91.8564 49.1118 91.6684 48.7558 91.6044 48.2998L92.4564 48.0718C92.5204 48.3278 92.6284 48.5358 92.7804 48.6958C92.9324 48.8558 93.1404 48.9358 93.4044 48.9358C93.6684 48.9358 93.8764 48.8558 94.0284 48.6958C94.1804 48.5358 94.2884 48.3278 94.3524 48.0718L95.1924 48.2998C95.1284 48.7558 94.9404 49.1118 94.6284 49.3678C94.3164 49.6238 93.9084 49.7518 93.4044 49.7518ZM102.994 53.6038C103.242 53.7798 103.51 54.0038 103.798 54.2758C104.086 54.5398 104.366 54.8278 104.638 55.1398C104.918 55.4518 105.178 55.7718 105.418 56.0998C105.658 56.4198 105.862 56.7198 106.03 56.9998H104.71C104.534 56.7278 104.326 56.4518 104.086 56.1718C103.854 55.8838 103.61 55.6078 103.354 55.3438C103.098 55.0798 102.838 54.8358 102.574 54.6118C102.31 54.3878 102.062 54.1998 101.83 54.0478V56.9998H100.714V50.7598H101.83V53.4358C102.022 53.2518 102.242 53.0398 102.49 52.7998C102.738 52.5518 102.986 52.3038 103.234 52.0558C103.49 51.7998 103.726 51.5598 103.942 51.3358C104.158 51.1038 104.334 50.9118 104.47 50.7598H105.766C105.59 50.9518 105.382 51.1718 105.142 51.4198C104.91 51.6598 104.666 51.9078 104.41 52.1638C104.162 52.4198 103.914 52.6758 103.666 52.9318C103.418 53.1798 103.194 53.4038 102.994 53.6038ZM109.271 56.1958C109.535 56.1958 109.767 56.1918 109.967 56.1838C110.175 56.1678 110.347 56.1438 110.483 56.1118V54.2518C110.403 54.2118 110.271 54.1798 110.087 54.1558C109.911 54.1238 109.695 54.1078 109.439 54.1078C109.271 54.1078 109.091 54.1198 108.899 54.1438C108.715 54.1678 108.543 54.2198 108.383 54.2998C108.231 54.3718 108.103 54.4758 107.999 54.6118C107.895 54.7398 107.843 54.9118 107.843 55.1278C107.843 55.5278 107.971 55.8078 108.227 55.9678C108.483 56.1198 108.831 56.1958 109.271 56.1958ZM109.175 50.6038C109.623 50.6038 109.999 50.6638 110.303 50.7838C110.615 50.8958 110.863 51.0598 111.047 51.2758C111.239 51.4838 111.375 51.7358 111.455 52.0318C111.535 52.3198 111.575 52.6398 111.575 52.9918V56.8918C111.479 56.9078 111.343 56.9318 111.167 56.9638C110.999 56.9878 110.807 57.0118 110.591 57.0358C110.375 57.0598 110.139 57.0798 109.883 57.0958C109.635 57.1198 109.387 57.1318 109.139 57.1318C108.787 57.1318 108.463 57.0958 108.167 57.0238C107.871 56.9518 107.615 56.8398 107.399 56.6878C107.183 56.5278 107.015 56.3198 106.895 56.0638C106.775 55.8078 106.715 55.4998 106.715 55.1398C106.715 54.7958 106.783 54.4998 106.919 54.2518C107.063 54.0038 107.255 53.8038 107.495 53.6518C107.735 53.4998 108.015 53.3878 108.335 53.3158C108.655 53.2438 108.991 53.2078 109.343 53.2078C109.455 53.2078 109.571 53.2158 109.691 53.2318C109.811 53.2398 109.923 53.2558 110.027 53.2798C110.139 53.2958 110.235 53.3118 110.315 53.3278C110.395 53.3438 110.451 53.3558 110.483 53.3638V53.0518C110.483 52.8678 110.463 52.6878 110.423 52.5118C110.383 52.3278 110.311 52.1678 110.207 52.0318C110.103 51.8878 109.959 51.7758 109.775 51.6958C109.599 51.6078 109.367 51.5638 109.079 51.5638C108.711 51.5638 108.387 51.5918 108.107 51.6478C107.835 51.6958 107.631 51.7478 107.495 51.8038L107.363 50.8798C107.507 50.8158 107.747 50.7558 108.083 50.6998C108.419 50.6358 108.783 50.6038 109.175 50.6038ZM114.437 51.4798C114.685 51.2798 114.973 51.1278 115.301 51.0238C115.637 50.9118 115.957 50.8558 116.261 50.8558C117.157 50.8558 117.833 51.1318 118.289 51.6838C118.753 52.2278 118.985 52.9878 118.985 53.9638C118.985 54.3798 118.929 54.7798 118.817 55.1638C118.705 55.5478 118.529 55.8878 118.289 56.1838C118.057 56.4798 117.761 56.7158 117.401 56.8918C117.041 57.0678 116.613 57.1558 116.117 57.1558C115.549 57.1558 115.077 57.0518 114.701 56.8438C114.325 56.6358 114.025 56.3518 113.801 55.9918C113.585 55.6318 113.433 55.2118 113.345 54.7318C113.257 54.2518 113.213 53.7438 113.213 53.2078C113.213 52.5118 113.261 51.8638 113.357 51.2638C113.461 50.6638 113.645 50.1358 113.909 49.6798C114.173 49.2238 114.537 48.8478 115.001 48.5518C115.473 48.2478 116.077 48.0438 116.813 47.9398C117.029 47.9078 117.217 47.8838 117.377 47.8678C117.545 47.8438 117.689 47.8238 117.809 47.8078C117.937 47.7918 118.053 47.7758 118.157 47.7598C118.261 47.7358 118.369 47.7118 118.481 47.6878L118.601 48.6958C118.545 48.7118 118.485 48.7238 118.421 48.7318C118.365 48.7398 118.281 48.7518 118.169 48.7678C118.065 48.7838 117.921 48.8038 117.737 48.8278C117.561 48.8518 117.329 48.8798 117.041 48.9118C116.249 48.9998 115.641 49.2398 115.217 49.6318C114.793 50.0238 114.533 50.6398 114.437 51.4798ZM114.365 53.3878C114.365 53.7638 114.389 54.1198 114.437 54.4558C114.493 54.7918 114.585 55.0878 114.713 55.3438C114.849 55.5998 115.029 55.8038 115.253 55.9558C115.477 56.0998 115.765 56.1718 116.117 56.1718C116.421 56.1718 116.681 56.1158 116.897 56.0038C117.113 55.8838 117.289 55.7238 117.425 55.5238C117.561 55.3238 117.661 55.0918 117.725 54.8278C117.789 54.5558 117.821 54.2678 117.821 53.9638C117.821 53.6918 117.793 53.4278 117.737 53.1718C117.689 52.9158 117.597 52.6878 117.461 52.4878C117.325 52.2878 117.141 52.1278 116.909 52.0078C116.685 51.8878 116.401 51.8278 116.057 51.8278C115.721 51.8278 115.397 51.8998 115.085 52.0438C114.781 52.1878 114.545 52.3638 114.377 52.5718C114.369 52.6598 114.365 52.7838 114.365 52.9438C114.365 53.1038 114.365 53.2518 114.365 53.3878ZM125.809 50.7598V56.9998H124.729V52.2478C124.489 52.5518 124.225 52.9078 123.937 53.3158C123.649 53.7238 123.361 54.1478 123.073 54.5878C122.785 55.0198 122.509 55.4478 122.245 55.8718C121.981 56.2958 121.753 56.6718 121.561 56.9998H120.565V50.7598H121.645V55.2478C121.853 54.9038 122.089 54.5278 122.353 54.1198C122.617 53.7038 122.889 53.2958 123.169 52.8958C123.457 52.4878 123.741 52.0998 124.021 51.7318C124.309 51.3558 124.577 51.0318 124.825 50.7598H125.809ZM132.838 56.9998H131.722V54.2398H128.842V56.9998H127.726V50.7598H128.842V53.3038H131.722V50.7598H132.838V56.9998ZM134.409 53.8918C134.409 53.3398 134.489 52.8598 134.649 52.4518C134.809 52.0358 135.021 51.6918 135.285 51.4198C135.549 51.1478 135.853 50.9438 136.197 50.8078C136.541 50.6718 136.893 50.6038 137.253 50.6038C138.093 50.6038 138.737 50.8678 139.185 51.3958C139.633 51.9158 139.857 52.7118 139.857 53.7838C139.857 53.8318 139.857 53.8958 139.857 53.9758C139.857 54.0478 139.853 54.1158 139.845 54.1798H135.573C135.621 54.8278 135.809 55.3198 136.137 55.6558C136.465 55.9918 136.977 56.1598 137.673 56.1598C138.065 56.1598 138.393 56.1278 138.657 56.0638C138.929 55.9918 139.133 55.9238 139.269 55.8598L139.425 56.7958C139.289 56.8678 139.049 56.9438 138.705 57.0238C138.369 57.1038 137.985 57.1438 137.553 57.1438C137.009 57.1438 136.537 57.0638 136.137 56.9038C135.745 56.7358 135.421 56.5078 135.165 56.2198C134.909 55.9318 134.717 55.5918 134.589 55.1998C134.469 54.7998 134.409 54.3638 134.409 53.8918ZM138.693 53.2798C138.701 52.7758 138.573 52.3638 138.309 52.0438C138.053 51.7158 137.697 51.5518 137.241 51.5518C136.985 51.5518 136.757 51.6038 136.557 51.7078C136.365 51.8038 136.201 51.9318 136.065 52.0918C135.929 52.2518 135.821 52.4358 135.741 52.6438C135.669 52.8518 135.621 53.0638 135.597 53.2798H138.693ZM145.864 50.7598V51.6958H143.836V56.9998H142.72V51.6958H140.692V50.7598H145.864ZM152.072 53.6038C152.32 53.7798 152.588 54.0038 152.876 54.2758C153.164 54.5398 153.444 54.8278 153.716 55.1398C153.996 55.4518 154.256 55.7718 154.496 56.0998C154.736 56.4198 154.94 56.7198 155.108 56.9998H153.788C153.612 56.7278 153.404 56.4518 153.164 56.1718C152.932 55.8838 152.688 55.6078 152.432 55.3438C152.176 55.0798 151.916 54.8358 151.652 54.6118C151.388 54.3878 151.14 54.1998 150.908 54.0478V56.9998H149.792V50.7598H150.908V53.4358C151.1 53.2518 151.32 53.0398 151.568 52.7998C151.816 52.5518 152.064 52.3038 152.312 52.0558C152.568 51.7998 152.804 51.5598 153.02 51.3358C153.236 51.1038 153.412 50.9118 153.548 50.7598H154.844C154.668 50.9518 154.46 51.1718 154.22 51.4198C153.988 51.6598 153.744 51.9078 153.488 52.1638C153.24 52.4198 152.992 52.6758 152.744 52.9318C152.496 53.1798 152.272 53.4038 152.072 53.6038ZM161.394 53.8798C161.394 54.3758 161.322 54.8238 161.178 55.2238C161.034 55.6238 160.83 55.9678 160.566 56.2558C160.31 56.5438 160.002 56.7678 159.642 56.9278C159.282 57.0798 158.89 57.1558 158.466 57.1558C158.042 57.1558 157.65 57.0798 157.29 56.9278C156.93 56.7678 156.618 56.5438 156.354 56.2558C156.098 55.9678 155.898 55.6238 155.754 55.2238C155.61 54.8238 155.538 54.3758 155.538 53.8798C155.538 53.3918 155.61 52.9478 155.754 52.5478C155.898 52.1398 156.098 51.7918 156.354 51.5038C156.618 51.2158 156.93 50.9958 157.29 50.8438C157.65 50.6838 158.042 50.6038 158.466 50.6038C158.89 50.6038 159.282 50.6838 159.642 50.8438C160.002 50.9958 160.31 51.2158 160.566 51.5038C160.83 51.7918 161.034 52.1398 161.178 52.5478C161.322 52.9478 161.394 53.3918 161.394 53.8798ZM160.23 53.8798C160.23 53.1758 160.07 52.6198 159.75 52.2118C159.438 51.7958 159.01 51.5878 158.466 51.5878C157.922 51.5878 157.49 51.7958 157.17 52.2118C156.858 52.6198 156.702 53.1758 156.702 53.8798C156.702 54.5838 156.858 55.1438 157.17 55.5598C157.49 55.9678 157.922 56.1718 158.466 56.1718C159.01 56.1718 159.438 55.9678 159.75 55.5598C160.07 55.1438 160.23 54.5838 160.23 53.8798ZM168.076 56.9998H166.96V54.2398H164.08V56.9998H162.964V50.7598H164.08V53.3038H166.96V50.7598H168.076V56.9998ZM174.399 50.7598V51.6958H172.371V56.9998H171.255V51.6958H169.227V50.7598H174.399ZM179.882 53.8918C179.882 53.1638 179.702 52.6038 179.342 52.2118C178.982 51.8198 178.502 51.6238 177.902 51.6238C177.566 51.6238 177.302 51.6358 177.11 51.6598C176.926 51.6838 176.778 51.7118 176.666 51.7438V55.6798C176.802 55.7918 176.998 55.8998 177.254 56.0038C177.51 56.1078 177.79 56.1598 178.094 56.1598C178.414 56.1598 178.686 56.1038 178.91 55.9918C179.142 55.8718 179.33 55.7118 179.474 55.5118C179.618 55.3038 179.722 55.0638 179.786 54.7918C179.85 54.5118 179.882 54.2118 179.882 53.8918ZM181.046 53.8918C181.046 54.3638 180.982 54.7998 180.854 55.1998C180.734 55.5998 180.554 55.9438 180.314 56.2318C180.074 56.5198 179.778 56.7438 179.426 56.9038C179.082 57.0638 178.686 57.1438 178.238 57.1438C177.878 57.1438 177.558 57.0958 177.278 56.9998C177.006 56.9038 176.802 56.8118 176.666 56.7238V59.2198H175.55V50.9518C175.814 50.8878 176.142 50.8198 176.534 50.7478C176.934 50.6678 177.394 50.6278 177.914 50.6278C178.394 50.6278 178.826 50.7038 179.21 50.8558C179.594 51.0078 179.922 51.2238 180.194 51.5038C180.466 51.7838 180.674 52.1278 180.818 52.5358C180.97 52.9358 181.046 53.3878 181.046 53.8918ZM184.728 56.1958C184.992 56.1958 185.224 56.1918 185.424 56.1838C185.632 56.1678 185.804 56.1438 185.94 56.1118V54.2518C185.86 54.2118 185.728 54.1798 185.544 54.1558C185.368 54.1238 185.152 54.1078 184.896 54.1078C184.728 54.1078 184.548 54.1198 184.356 54.1438C184.172 54.1678 184 54.2198 183.84 54.2998C183.688 54.3718 183.56 54.4758 183.456 54.6118C183.352 54.7398 183.3 54.9118 183.3 55.1278C183.3 55.5278 183.428 55.8078 183.684 55.9678C183.94 56.1198 184.288 56.1958 184.728 56.1958ZM184.632 50.6038C185.08 50.6038 185.456 50.6638 185.76 50.7838C186.072 50.8958 186.32 51.0598 186.504 51.2758C186.696 51.4838 186.832 51.7358 186.912 52.0318C186.992 52.3198 187.032 52.6398 187.032 52.9918V56.8918C186.936 56.9078 186.8 56.9318 186.624 56.9638C186.456 56.9878 186.264 57.0118 186.048 57.0358C185.832 57.0598 185.596 57.0798 185.34 57.0958C185.092 57.1198 184.844 57.1318 184.596 57.1318C184.244 57.1318 183.92 57.0958 183.624 57.0238C183.328 56.9518 183.072 56.8398 182.856 56.6878C182.64 56.5278 182.472 56.3198 182.352 56.0638C182.232 55.8078 182.172 55.4998 182.172 55.1398C182.172 54.7958 182.24 54.4998 182.376 54.2518C182.52 54.0038 182.712 53.8038 182.952 53.6518C183.192 53.4998 183.472 53.3878 183.792 53.3158C184.112 53.2438 184.448 53.2078 184.8 53.2078C184.912 53.2078 185.028 53.2158 185.148 53.2318C185.268 53.2398 185.38 53.2558 185.484 53.2798C185.596 53.2958 185.692 53.3118 185.772 53.3278C185.852 53.3438 185.908 53.3558 185.94 53.3638V53.0518C185.94 52.8678 185.92 52.6878 185.88 52.5118C185.84 52.3278 185.768 52.1678 185.664 52.0318C185.56 51.8878 185.416 51.7758 185.232 51.6958C185.056 51.6078 184.824 51.5638 184.536 51.5638C184.168 51.5638 183.844 51.5918 183.564 51.6478C183.292 51.6958 183.088 51.7478 182.952 51.8038L182.82 50.8798C182.964 50.8158 183.204 50.7558 183.54 50.6998C183.876 50.6358 184.24 50.6038 184.632 50.6038ZM192.75 51.6958H190.002V56.9998H188.886V50.7598H192.75V51.6958ZM193.553 53.8918C193.553 53.3398 193.633 52.8598 193.793 52.4518C193.953 52.0358 194.165 51.6918 194.429 51.4198C194.693 51.1478 194.997 50.9438 195.341 50.8078C195.685 50.6718 196.037 50.6038 196.397 50.6038C197.237 50.6038 197.881 50.8678 198.329 51.3958C198.777 51.9158 199.001 52.7118 199.001 53.7838C199.001 53.8318 199.001 53.8958 199.001 53.9758C199.001 54.0478 198.997 54.1158 198.989 54.1798H194.717C194.765 54.8278 194.953 55.3198 195.281 55.6558C195.609 55.9918 196.121 56.1598 196.817 56.1598C197.209 56.1598 197.537 56.1278 197.801 56.0638C198.073 55.9918 198.277 55.9238 198.413 55.8598L198.569 56.7958C198.433 56.8678 198.193 56.9438 197.849 57.0238C197.513 57.1038 197.129 57.1438 196.697 57.1438C196.153 57.1438 195.681 57.0638 195.281 56.9038C194.889 56.7358 194.565 56.5078 194.309 56.2198C194.053 55.9318 193.861 55.5918 193.733 55.1998C193.613 54.7998 193.553 54.3638 193.553 53.8918ZM197.837 53.2798C197.845 52.7758 197.717 52.3638 197.453 52.0438C197.197 51.7158 196.841 51.5518 196.385 51.5518C196.129 51.5518 195.901 51.6038 195.701 51.7078C195.509 51.8038 195.345 51.9318 195.209 52.0918C195.073 52.2518 194.965 52.4358 194.885 52.6438C194.813 52.8518 194.765 53.0638 194.741 53.2798H197.837ZM205.717 56.9998H204.601V54.2398H201.721V56.9998H200.605V50.7598H201.721V53.3038H204.601V50.7598H205.717V56.9998ZM212.04 50.7598V51.6958H210.012V56.9998H208.896V51.6958H206.868V50.7598H212.04ZM215.302 56.1958C215.566 56.1958 215.798 56.1918 215.998 56.1838C216.206 56.1678 216.378 56.1438 216.514 56.1118V54.2518C216.434 54.2118 216.302 54.1798 216.118 54.1558C215.942 54.1238 215.726 54.1078 215.47 54.1078C215.302 54.1078 215.122 54.1198 214.93 54.1438C214.746 54.1678 214.574 54.2198 214.414 54.2998C214.262 54.3718 214.134 54.4758 214.03 54.6118C213.926 54.7398 213.874 54.9118 213.874 55.1278C213.874 55.5278 214.002 55.8078 214.258 55.9678C214.514 56.1198 214.862 56.1958 215.302 56.1958ZM215.206 50.6038C215.654 50.6038 216.03 50.6638 216.334 50.7838C216.646 50.8958 216.894 51.0598 217.078 51.2758C217.27 51.4838 217.406 51.7358 217.486 52.0318C217.566 52.3198 217.606 52.6398 217.606 52.9918V56.8918C217.51 56.9078 217.374 56.9318 217.198 56.9638C217.03 56.9878 216.838 57.0118 216.622 57.0358C216.406 57.0598 216.17 57.0798 215.914 57.0958C215.666 57.1198 215.418 57.1318 215.17 57.1318C214.818 57.1318 214.494 57.0958 214.198 57.0238C213.902 56.9518 213.646 56.8398 213.43 56.6878C213.214 56.5278 213.046 56.3198 212.926 56.0638C212.806 55.8078 212.746 55.4998 212.746 55.1398C212.746 54.7958 212.814 54.4998 212.95 54.2518C213.094 54.0038 213.286 53.8038 213.526 53.6518C213.766 53.4998 214.046 53.3878 214.366 53.3158C214.686 53.2438 215.022 53.2078 215.374 53.2078C215.486 53.2078 215.602 53.2158 215.722 53.2318C215.842 53.2398 215.954 53.2558 216.058 53.2798C216.17 53.2958 216.266 53.3118 216.346 53.3278C216.426 53.3438 216.482 53.3558 216.514 53.3638V53.0518C216.514 52.8678 216.494 52.6878 216.454 52.5118C216.414 52.3278 216.342 52.1678 216.238 52.0318C216.134 51.8878 215.99 51.7758 215.806 51.6958C215.63 51.6078 215.398 51.5638 215.11 51.5638C214.742 51.5638 214.418 51.5918 214.138 51.6478C213.866 51.6958 213.662 51.7478 213.526 51.8038L213.394 50.8798C213.538 50.8158 213.778 50.7558 214.114 50.6998C214.45 50.6358 214.814 50.6038 215.206 50.6038Z" fill="#025694"/>
</svg>
